<svg xmlns="http://www.w3.org/2000/svg" viewBox="0 0 165.03 184.95"><defs><style>.cls-1{fill:#fff;}</style></defs><title>Asset 8</title><g id="Layer_2" data-name="Layer 2"><g id="Layer_1-2" data-name="Layer 1"><path class="cls-1" d="M133.94,184c-8.92.83-9.89-.57-9.89-.57-1.51-.66-1.91-1.79-2-3.32,0-1.16.59-4.44,1.39-5.42a11.6,11.6,0,0,1-1.32,1.64l-2.15.57a.21.21,0,0,1-.26-.2v-2.63a.19.19,0,0,0,0-.12,10.2,10.2,0,0,0-1.68-1.55c-1.66-1.45-3.34-2.89-5-4.34q-3.44-3-6.82-6.08c-2.42-2.22-4.81-4.48-7.11-6.82a76.33,76.33,0,0,1-5.88-6.57,28.15,28.15,0,0,1-2-2.88,31.41,31.41,0,0,1-2.63-6.91c0-.21-.07-.17-.07-.17l-.57,2.7a54.56,54.56,0,0,1-5.05,11.3,50.38,50.38,0,0,1-3.48,5.15c-1,1.28-3.09,2.8-3,4.53a3.53,3.53,0,0,1-.12,1.86,2.78,2.78,0,0,1-.5.63c-6.32,6.6-11.88,14.8-20.8,17.95a46.21,46.21,0,0,1-16.22,2.18C21.38,184.62,5,175.12.93,157q-.15-.67-.26-1.36A74.24,74.24,0,0,1,0,143.08c.05-12,.61-23.56,4.37-35A88,88,0,0,1,11.8,91.13c2-3.38,4.93-6,6.75-9.52.94-1.79.8-3.7,1.48-5.42s2.53-2.41,3.68-4.23a40.83,40.83,0,0,0,2.22-4.57,2.19,2.19,0,0,1,.77-1,2.07,2.07,0,0,1,1.08-.19l6.73.05a3.08,3.08,0,0,0,1-.11c.76-.26,3.61-5.2,3.3-5.85-.46-1-.85-2-1.21-3.06a56.14,56.14,0,0,1-2.13-7.91,54.71,54.71,0,0,1-1-11.33A48.81,48.81,0,0,1,35,31.46c.33-2.2,1.05-4.33,1-6.57a.46.46,0,0,0-.16-.41c-.09-.09-.8-.68-.78-.82s1-7.92,6.59-8.9a15.51,15.51,0,0,1,4.33-.4l-3.38-3.56h1.88L42.8,8.16A.21.21,0,0,1,43,7.84h8.91a.2.2,0,0,0,.17-.09c.24-.37,1.35-1.73,4.54-.93a.2.2,0,0,0,.19,0c.49-.45,2.88-3-2.18-6.4A.21.21,0,0,1,54.75,0a7.31,7.31,0,0,1,5.7,3.83.2.2,0,0,0,.06.07L63,5.68a.21.21,0,0,0,.33-.13,4.51,4.51,0,0,0-2-4.63c-2.61-1.83,6.88.58,6.05,4.88A.2.2,0,0,0,67.8,6c1.08-1.1,3.23-2.79,5.84-2.1,3.31.87,3,6.33,2.85,7.63a.21.21,0,0,0,.25.23c1-.19,4.56-.79,5.37.05,1.5,1.58,2.29,3.85,3.9,5.33a9.51,9.51,0,0,0,2.37,1.46,42.25,42.25,0,0,0,7.74,3.07.2.2,0,0,1,.14.13c.37,1,3.45,10.07-1,14.73-.06.06-1,.93-3.49,1a.21.21,0,0,0-.21.25,20.34,20.34,0,0,1-6.66,20.52c-.56.48.75,7,.86,8a2.45,2.45,0,0,1,0,1c-.46,1.47-2.56,1.21-3.66.94-.63-.16-1.34-.19-1.75-.66-.2-.22-.2-.34-.23-.28.2.29.09.8.09,1.13s0,.91,0,1.36V71.4a2.38,2.38,0,0,0,0,.73s.94,2-1.88,2H77.4s.94,3-1.88,3H73.9c-.13,0,0,0-.13,0-.3.08-.46.48-.58.73a5.82,5.82,0,0,1-.67,1.12,5.12,5.12,0,0,1-3.21,1.69,6.76,6.76,0,0,1-2.57-.25,16.8,16.8,0,0,1-5.85-3,17.45,17.45,0,0,1-2.26-2.16.25.25,0,0,0-.08-.07h-.9c-.26,0-.61,1.76-.67,2a11.69,11.69,0,0,0-.3,3.11c0,.72.18.85.72,1.2a6,6,0,0,1,1.42,1.32,6.72,6.72,0,0,1,.72,6.2c-.24.75,3.61,5.3,4.07,6a3.62,3.62,0,0,1,.55,1,3.73,3.73,0,0,1,.1,1q0,5.82,0,11.63a.21.21,0,0,0,.11.19l1.64.86a.21.21,0,0,0,.24,0c.74-.73,4.78-5.07,5.08-5.36,3-2.94,5.75-5.88,9.56-7.73,3.58-1.74,7.9-2.64,11.71-1.1s6.4,4.81,8.29,8.25a.21.21,0,0,0,.18.11h4.5a.19.19,0,0,0,.13,0c.68-.61,7.58-6.74,10.3-4.9a5.3,5.3,0,0,0,1.88,1l3.69-1a.21.21,0,0,0,.12-.08l19.58-27.45a.21.21,0,0,1,.31,0L145.95,75a.2.2,0,0,0,.27,0l6.18-5.57a.21.21,0,0,1,.34.1c.22.85.92,2.93,1,3.21A16.18,16.18,0,0,0,156.31,78a.2.2,0,0,1,0,.24q-5.58,8.21-11.19,16.39l-5.54,8.09c-1.35,2-4.48,5-4.76,7.49-.09.76,0,1.52,0,2.28-.13,2.35-1.58,4.44-1.84,6.76a.21.21,0,0,1-.2.19,6.14,6.14,0,0,0-2,.93,9.14,9.14,0,0,0-.7,2.22c-.21.66-3.81,1.17-4.57,1.59-2.09,1.16-3.5,3.33-4.78,5.34-.55.87,5.1,8,5.72,8.74,2.19,2.77,4.91,6,8.33,7.08l6.47,1.94a.21.21,0,0,1,.15.16c.21,1-2.47,11.43-7.55,16-.08.07-.06-.08,0,0,.54.79,7,8.67,24.35,13.95,11,3.35,5.62,5.34,4.57,5.73a10,10,0,0,1-2.2.42l-.11,0-.68,0h-4.57l-21.29.44"/></g></g></svg>